<?xml version="1.0" encoding="utf-8"?>
<!-- Generator: Adobe Illustrator 16.0.0, SVG Export Plug-In . SVG Version: 6.00 Build 0)  -->
<!DOCTYPE svg PUBLIC "-//W3C//DTD SVG 1.1//EN" "http://www.w3.org/Graphics/SVG/1.1/DTD/svg11.dtd">
<svg version="1.1" id="Camada_1" xmlns="http://www.w3.org/2000/svg" xmlns:xlink="http://www.w3.org/1999/xlink" x="0px" y="0px"
	 width="368px" height="163px" viewBox="0 0 368 163" enable-background="new 0 0 368 163" xml:space="preserve">
<title>logo-ionic-framework-thick</title>
<desc>Created with Sketch.</desc>
<path id="icon-ionic" fill="#4B8BF8" d="M93.956,128.509c-24.627,0.009-45.52-19.435-46.854-43.604
	C45.681,59.15,63.812,37.425,89.112,34.767c6.707-0.704,13.367-0.092,19.795,2.197c3.219,1.146,4.545,2.957,3.591,5.229
	c-1.183,2.818-3.354,2.697-5.849,1.914c-17.543-5.514-35.044,0.165-45.199,15.199c-9.007,13.335-9.669,27.576-1.765,41.552
	c8.107,14.337,20.969,21.141,37.415,20.001c25.102-1.737,41.953-26.479,34.801-50.552c-0.272-0.917-0.591-1.825-0.775-2.759
	c-0.42-2.125,0.131-3.913,2.359-4.561c2.12-0.616,3.967,0.225,4.604,2.331c1.069,3.544,2.185,7.146,2.6,10.8
	C143.883,104.209,122.145,128.498,93.956,128.509z M72.86,81.562c0.316-12.226,8.711-20.984,21.097-21.218
	c11.617-0.221,21.202,9.415,21.278,20.918c0.078,11.746-9.407,21.437-21.066,21.521C82.466,102.87,72.935,93.378,72.86,81.562z
	 M124.753,41.519c5.311,0.068,9.541,4.371,9.381,9.541c-0.171,5.479-4.457,9.563-9.885,9.419c-5.151-0.137-9.169-4.268-9.183-9.443
	C115.053,45.555,119.232,41.448,124.753,41.519z"/>
<g>
	<path fill="#47848F" d="M264.912,54.605c-12.096-2.233-21.649,0.125-25.495,6.7c-2.854,4.9-2.048,11.476,1.985,18.423
		c0.31,0.621,1.115,0.807,1.674,0.435c0.621-0.31,0.807-1.117,0.435-1.675c-3.599-6.266-4.28-11.911-1.985-15.942
		c3.164-5.459,11.725-7.568,22.891-5.521c0.682,0.124,1.303-0.31,1.427-0.992C265.967,55.35,265.594,54.729,264.912,54.605z
		 M247.729,88.229c4.901,5.396,11.229,10.42,18.486,14.576c17.555,10.111,36.227,12.841,45.471,6.576
		c0.558-0.373,0.681-1.179,0.309-1.737c-0.371-0.558-1.178-0.683-1.736-0.31c-8.25,5.645-25.992,3.039-42.803-6.639
		c-7.01-4.03-13.213-8.933-17.928-14.144c-0.434-0.496-1.24-0.558-1.736-0.062C247.295,86.924,247.233,87.731,247.729,88.229z"/>
	<path fill="#47848F" d="M308.707,86.738c7.941-9.367,10.67-18.796,6.886-25.371c-2.792-4.839-8.747-7.383-16.563-7.507
		c-0.683,0-1.241,0.558-1.241,1.241s0.559,1.241,1.241,1.241c7.071,0.062,12.158,2.295,14.453,6.266
		c3.165,5.458,0.683,13.895-6.638,22.518c-0.434,0.496-0.372,1.302,0.124,1.737C307.467,87.297,308.274,87.234,308.707,86.738
		L308.707,86.738z M288.361,54.978c-7.134,1.55-14.765,4.528-22.084,8.746c-18.175,10.484-29.962,25.929-28.349,37.096
		c0.124,0.683,0.744,1.116,1.426,1.054c0.684-0.124,1.117-0.743,1.055-1.426c-1.488-9.927,9.74-24.503,27.109-34.553
		c7.134-4.094,14.516-7.01,21.4-8.499c0.684-0.124,1.117-0.807,0.931-1.489C289.663,55.288,289.043,54.854,288.361,54.978z"/>
	<path fill="#47848F" d="M259.02,108.573c4.155,11.538,10.918,18.673,18.547,18.673c5.583,0,10.67-3.784,14.702-10.483
		c0.372-0.559,0.187-1.364-0.435-1.675c-0.559-0.372-1.364-0.186-1.674,0.435c-3.599,6.016-8.003,9.242-12.594,9.242
		c-6.326,0-12.344-6.327-16.19-17.059c-0.248-0.62-0.931-0.993-1.612-0.745C259.08,107.209,258.772,107.953,259.02,108.573
		L259.02,108.573z M296.86,106.341c2.171-6.823,3.287-14.764,3.287-23.015c0-20.532-7.195-38.274-17.431-42.802
		c-0.62-0.248-1.365,0-1.612,0.621c-0.249,0.62,0,1.365,0.619,1.613c9.119,4.032,15.942,20.843,15.942,40.569
		c0,8.003-1.116,15.632-3.164,22.271c-0.186,0.683,0.187,1.364,0.808,1.551C295.928,107.334,296.612,106.961,296.86,106.341
		L296.86,106.341z M320.184,105.1c0-3.287-2.668-5.955-5.955-5.955c-3.289,0-5.955,2.668-5.955,5.955
		c0,3.289,2.666,5.956,5.955,5.956C317.578,111.056,320.184,108.389,320.184,105.1z M317.702,105.1c0,1.924-1.551,3.474-3.474,3.474
		s-3.475-1.55-3.475-3.474c0-1.922,1.552-3.473,3.475-3.473S317.702,103.178,317.702,105.1z M240.72,111.056
		c3.286,0,5.954-2.667,5.954-5.956c0-3.287-2.668-5.955-5.954-5.955c-3.288,0-5.956,2.668-5.956,5.955
		C234.764,108.389,237.432,111.056,240.72,111.056z M240.72,108.573c-1.923,0-3.475-1.55-3.475-3.474
		c0-1.922,1.552-3.473,3.475-3.473c1.922,0,3.474,1.551,3.474,3.473C244.194,107.023,242.642,108.573,240.72,108.573z"/>
	<path fill="#47848F" d="M277.567,46.542c3.288,0,5.955-2.668,5.955-5.956s-2.667-5.955-5.955-5.955
		c-3.287,0-5.955,2.667-5.955,5.955S274.28,46.542,277.567,46.542z M277.567,44.06c-1.922,0-3.473-1.551-3.473-3.474
		c0-1.923,1.551-3.474,3.473-3.474c1.924,0,3.475,1.551,3.475,3.474C281.041,42.509,279.428,44.06,277.567,44.06z M278.436,87.546
		c-2.295,0.496-4.591-0.994-5.088-3.288c-0.495-2.296,0.994-4.591,3.289-5.087c2.294-0.497,4.59,0.992,5.086,3.287
		C282.219,84.754,280.793,87.049,278.436,87.546L278.436,87.546z"/>
</g>
<g>
	<text transform="matrix(1 0 0 1 177.113 93.957)" fill="#E1E5ED" font-family="'MyriadPro-Regular'" font-size="43.4979">+</text>
</g>
</svg>
